<?xml version="1.0" encoding="UTF-8"?>
<svg width="20px" height="24px" viewBox="0 0 20 24" version="1.1" xmlns="http://www.w3.org/2000/svg" xmlns:xlink="http://www.w3.org/1999/xlink">
    <g id="logo" stroke="none" stroke-width="1" fill="none" fill-rule="evenodd">
        <g id="Group-132-Copy">
            <rect id="Rectangle"  fill="rgba(0,0,0,0)" x="0" y="0" width="20" height="23.8461538"></rect>
            <path d="M10.3822087,16.9230769 L10.3822087,21.5999687 C10.3822087,21.5999687 10.4630206,22.0307168 9.68809112,22.3076923 L6.86752348,22.3076923 C6.86752348,22.3076923 3.36500994,22.2153231 3.08605928,20.2461229 C3.08605928,20.2461229 2.65206952,17.138517 7.7663645,16.9230769 L10.3822087,16.9230769 Z" id="Fill-4" fill="#C0C0C0"></path>
            <path d="M2.69230769,17.3076923 L2.69230769,5.01919473 C2.69230769,5.01919473 2.96532947,1.56866271 7.66756649,1.53846154 L11.6416803,1.53846154 C11.6416803,1.53846154 17.0417048,1.84112269 17.8607701,7.71294397 C17.8607701,7.71294397 18.619229,14.2204186 11.5810088,15.2797976 L7.18219444,15.2797976 C7.18219444,15.2797976 4.05748168,15.3403298 2.69230769,17.3076923" id="Fill-1" fill="#C0C0C0"></path>
        </g>
    </g>
</svg>
