<?xml version="1.0" encoding="UTF-8"?>
<svg width="20px" height="20px" viewBox="0 0 213 208" version="1.1" xmlns="http://www.w3.org/2000/svg" xmlns:xlink="http://www.w3.org/1999/xlink">
    <g id="logo" stroke="none" stroke-width="1" fill="none" fill-rule="evenodd">
        <g id="Group-3" fill="#eeeeee">
            <path d="M184.432199,114.963035 L184.724089,100.122026 L184.685865,100.159292 L184.685865,100.152304 L163.542371,121.153777 L196.774977,70.8580803 L201.855254,103.212738 L184.432199,114.963035 Z M176.949621,177.034649 L89.2876324,152.427733 L108.764342,114.264306 L143.803887,149.735297 L178.053475,115.721157 L176.949621,177.034649 Z M142.307371,196.947268 L125.820218,183.929942 L139.935186,179.61296 L113.502922,165.853816 L171.344638,182.092284 L142.307371,196.947268 Z M64.7989856,195.966718 L60.980091,104.483261 L103.116502,111.344782 L80.4324766,155.834038 L123.129501,178.062945 L64.7989856,195.966718 Z M35.2578613,168.995769 L42.4821396,149.193781 L50.9237845,161.373797 L50.9388424,161.280633 L50.977066,161.336531 L55.7689274,131.944485 L55.8372667,133.577183 L58.2835831,192.170289 L35.2578613,168.995769 Z M12.2842627,94.5589766 L97.565958,62.6491762 L104.125376,105.039915 L55.0218279,97.0650855 L47.2056615,144.77199 L12.2842627,94.5589766 Z M28.6683281,57.9781711 L49.5998548,58.7665706 L40.7180581,70.6007151 L40.7238496,70.5995505 L40.721533,70.6018796 L70.1120791,66.1090505 L13.8641754,87.1536111 L28.6683281,57.9781711 Z M91.923909,12.975349 L148.483394,84.715046 L113.680141,102.398719 L110.40217,104.064024 L102.751639,54.6580426 L55.2245293,61.9236623 L91.923909,12.975349 Z M131.590837,17.3377486 L137.317442,37.6113779 L123.37506,32.7621969 L136.726712,59.5246919 L99.4157531,12.1962659 L131.590837,17.3377486 Z M193.722873,63.9360025 L143.330145,140.203465 L113.268947,109.762161 L157.66403,87.2397877 L136.067643,43.9500168 L193.722873,63.9360025 Z M212.842829,100.395695 L207.109274,63.8707878 C206.361017,59.1077834 203.080729,55.1716086 198.548325,53.5994678 L148.686095,36.3012606 L142.740573,15.2543709 C141.367995,10.3993671 137.27806,6.75083589 132.321721,5.95894274 L95.9987865,0.155996292 C91.340129,-0.590479461 86.4799283,1.38459523 83.6374754,5.16937868 L51.8735854,47.4914096 L30.1463109,46.6727318 C25.0683511,46.4794167 20.4282262,49.2382327 18.132488,53.7625046 L1.41715061,86.7006016 C-0.761599964,90.9977865 -0.408320365,96.1194719 2.34031075,100.070786 L32.535871,143.488657 L25.0197027,164.091854 C23.2903701,168.829238 24.4660383,174.197808 28.0138921,177.768314 L54.0060043,203.929902 C56.4523207,206.390594 59.7036513,207.744964 63.1634748,207.744964 C64.4422311,207.744964 65.7128794,207.555142 66.9371959,207.178993 L117.390156,191.706798 L134.505105,205.221387 C136.773044,207.012463 139.61318,208 142.49849,208 C144.528979,208 146.558309,207.51089 148.367564,206.585073 L181.144961,189.814407 C185.419065,187.627384 188.128314,183.275465 188.217503,178.454234 L189.170779,125.436987 L207.270277,113.230187 C211.438977,110.418966 213.625835,105.379964 212.842829,100.395695 Z" id="Fill-1"></path>
        </g>
    </g>
</svg>
